:FULLY-SPECIFIED
:FORCE-ALL-JOINTS-BE-3DOF
:DEGREES
356
root 9.27533 17.0912 14.1137 6.4327 8.08319 -1.93058
lfemur -17.8442 7.71152 -15.3872
ltibia 64.2238 0 0
lfoot -6.65908 10.6291 0
ltoes -4.48172 0 0
rfemur -23.0218 5.06935 26.4065
rtibia 32.7489 0 0
rfoot -15.6407 0.695873 0
rtoes -12.562 0 0
lowerback -5.99174 -1.97135 -1.02603
upperback -1.27963 -2.61815 2.73948
thorax 2.21307 -1.32064 3.18381
lowerneck -19.7848 -6.08571 -13.3702
upperneck 20.5873 -7.93104 14.0782
head 11.0752 -3.07536 6.16633
lclavicle 2.48527e-14 3.2486e-15 0
lhumerus -38.7896 -23.1345 99.9412
lradius 26.6858 0 0
lwrist 9.51878 0 0
lhand -13.8206 -20.595 0
lfingers 7.12502 0 0
lthumb 12.3022 9.02382 0
rclavicle 2.48527e-14 3.2486e-15 0
rhumerus -41.0156 13.8884 -85.038
rradius 39.9902 0 0
rwrist -22.9883 0 0
rhand -30.1623 -27.2629 0
rfingers 7.12502 0 0
rthumb -3.47417 -57.2141 0
357
root 9.27086 17.0921 14.2642 6.42751 7.99496 -2.06623
lfemur -18.4327 7.69362 -15.2034
ltibia 64.5369 0 0
lfoot -6.63271 10.7181 0
ltoes -4.62062 0 0
rfemur -22.3653 4.9319 26.7714
rtibia 32.5103 0 0
rfoot -15.3604 0.982466 0
rtoes -12.4962 0 0
lowerback -5.99714 -1.88614 -0.91867
upperback -1.27352 -2.51577 2.76021
thorax 2.21211 -1.26791 3.1583
lowerneck -19.791 -6.10238 -13.3751
upperneck 20.5818 -7.95421 14.0871
head 11.0786 -3.08501 6.16655
lclavicle 2.59646e-14 3.81319e-15 0
lhumerus -39.2314 -22.8604 100.009
lradius 26.57 0 0
lwrist 9.39965 0 0
lhand -13.8042 -20.6386 0
lfingers 7.12502 0 0
lthumb 12.318 8.9789 0
rclavicle 2.59646e-14 3.81319e-15 0
rhumerus -40.8039 13.9783 -85.0735
rradius 40.0345 0 0
rwrist -22.9745 0 0
rhand -30.1766 -27.2135 0
rfingers 7.12502 0 0
rthumb -3.488 -57.1647 0
358
root 9.26774 17.0923 14.4131 6.42304 7.90617 -2.19657
lfemur -18.9974 7.67202 -15.0297
ltibia 64.8007 0 0
lfoot -6.61248 10.7996 0
ltoes -4.75524 0 0
rfemur -21.7246 4.80444 27.1156
rtibia 32.2657 0 0
rfoot -15.0932 1.25342 0
rtoes -12.4372 0 0
lowerback -6.00412 -1.80316 -0.815758
upperback -1.26701 -2.41597 2.78031
thorax 2.21301 -1.21656 3.13424
lowerneck -19.7965 -6.11798 -13.3795
upperneck 20.5773 -7.97579 14.0945
head 11.0818 -3.09408 6.16645
lclavicle 2.70223e-14 4.37326e-15 0
lhumerus -39.6529 -22.5957 100.069
lradius 26.4622 0 0
lwrist 9.2867 0 0
lhand -13.7859 -20.6825 0
lfingers 7.12502 0 0
lthumb 12.3356 8.93365 0
rclavicle 2.70223e-14 4.37326e-15 0
rhumerus -40.5988 14.0622 -85.1072
rradius 40.0746 0 0
rwrist -22.9576 0 0
rhand -30.1895 -27.1641 0
rfingers 7.12502 0 0
rthumb -3.50044 -57.1151 0
359
root 9.26567 17.0918 14.5607 6.48307 7.63896 -2.5099
lfemur -20.0014 7.47624 -14.6339
ltibia 63.9613 0 0
lfoot -6.68109 10.854 0
ltoes -5.20051 0 0
rfemur -20.001 4.95828 27.5442
rtibia 30.4683 0 0
rfoot -14.7321 1.65618 0
rtoes -12.4622 0 0
lowerback -6.10046 -1.58812 -0.60629
upperback -1.25876 -2.15392 2.85101
thorax 2.26536 -1.08314 3.12131
lowerneck -19.7178 -6.17231 -13.4271
upperneck 20.5448 -8.04976 14.1165
head 11.0669 -3.13082 6.16932
lclavicle 2.86503e-14 6.32542e-15 0
lhumerus -40.6477 -22.162 100.159
lradius 26.5295 0 0
lwrist 9.36359 0 0
lhand -13.6313 -20.8064 0
lfingers 7.12502 0 0
lthumb 12.4846 8.79886 0
rclavicle 2.86503e-14 6.32542e-15 0
rhumerus -40.1078 14.1516 -85.1104
rradius 40.0777 0 0
rwrist -22.8678 0 0
rhand -30.1527 -26.941 0
rfingers 7.12502 0 0
rthumb -3.46489 -56.8926 0
360
root 9.26433 17.0904 14.7072 6.54034 7.37296 -2.8134
lfemur -20.9822 7.28112 -14.2562
ltibia 63.1096 0 0
lfoot -6.75532 10.9021 0
ltoes -5.63094 0 0
rfemur -18.3151 5.10432 27.9567
rtibia 28.7281 0 0
rfoot -14.379 2.04377 0
rtoes -12.4907 0 0
lowerback -6.19539 -1.37789 -0.402846
upperback -1.24916 -1.89762 2.91926
thorax 2.3186 -0.952714 3.10851
lowerneck -19.643 -6.22356 -13.4717
upperneck 20.5155 -8.11933 14.1353
head 11.0531 -3.16558 6.17134
lclavicle 3.02298e-14 8.23743e-15 0
lhumerus -41.6053 -21.7332 100.238
lradius 26.5931 0 0
lwrist 9.43156 0 0
lhand -13.479 -20.9301 0
lfingers 7.12502 0 0
lthumb 12.6313 8.66454 0
rclavicle 3.02298e-14 8.23743e-15 0
rhumerus -39.6284 14.236 -85.115
rradius 40.0783 0 0
rwrist -22.7743 0 0
rhand -30.117 -26.7235 0
rfingers 7.12502 0 0
rthumb -3.43046 -56.6756 0
361
root 9.26369 17.0882 14.8527 6.59492 7.10829 -3.1072
lfemur -21.9397 7.08676 -13.8964
ltibia 62.2464 0 0
lfoot -6.83496 10.9441 0
ltoes -6.0467 0 0
rfemur -16.6668 5.2427 28.3533
rtibia 27.0444 0 0
rfoot -14.0337 2.4164 0
rtoes -12.5226 0 0
lowerback -6.28892 -1.17244 -0.205368
upperback -1.23825 -1.64706 2.98511
thorax 2.37268 -0.825258 3.09584
lowerneck -19.5723 -6.27181 -13.5133
upperneck 20.4891 -8.18459 14.1512
head 11.0403 -3.19839 6.17252
lclavicle 3.17612e-14 1.01093e-14 0
lhumerus -42.5263 -21.3095 100.306
lradius 26.653 0 0
lwrist 9.49084 0 0
lhand -13.3291 -21.0533 0
lfingers 7.12502 0 0
lthumb 12.7757 8.53074 0
rclavicle 3.17612e-14 1.01093e-14 0
rhumerus -39.1605 14.3157 -85.1208
rradius 40.0763 0 0
rwrist -22.6774 0 0
rhand -30.0825 -26.5115 0
rfingers 7.12502 0 0
rthumb -3.39713 -56.4641 0
